<svg width="28" height="28" viewBox="0 0 28 28" fill="none" xmlns="http://www.w3.org/2000/svg">
<g clip-path="url(#clip0_771_588)">
<g clip-path="url(#clip1_771_588)">
<path d="M5.99996 3C6.74256 3 7.45475 3.295 7.97985 3.8201C8.50496 4.3452 8.79996 5.05739 8.79996 5.8C8.79996 6.54261 8.50496 7.2548 7.97985 7.7799C7.45475 8.305 6.74256 8.6 5.99996 8.6C5.25735 8.6 4.54516 8.305 4.02006 7.7799C3.49496 7.2548 3.19996 6.54261 3.19996 5.8C3.19996 5.05739 3.49496 4.3452 4.02006 3.8201C4.54516 3.295 5.25735 3 5.99996 3ZM2.84996 24V20.5H2.07121C1.59433 20.5 1.25746 20.0319 1.40621 19.5769L2.76683 15.4906L1.51558 17.1444C1.04746 17.7612 0.168081 17.8794 -0.444419 17.4156C-1.05692 16.9519 -1.17942 16.0725 -0.715669 15.4556L1.86121 12.0562C2.84121 10.7613 4.37683 10 5.99996 10C7.62308 10 9.15871 10.7613 10.1387 12.0562L12.7156 15.4556C13.1837 16.0725 13.0612 16.9519 12.4443 17.4156C11.8275 17.8794 10.9481 17.7612 10.4843 17.1444L9.23308 15.4906L10.5937 19.5769C10.7468 20.0319 10.4056 20.5 9.92871 20.5H9.14996V24C9.14996 24.7744 8.52433 25.4 7.74996 25.4C6.97558 25.4 6.34996 24.7744 6.34996 24V20.5H5.64996V24C5.64996 24.7744 5.02433 25.4 4.24996 25.4C3.47558 25.4 2.84996 24.7744 2.84996 24ZM20 3C20.7426 3 21.4548 3.295 21.9799 3.8201C22.505 4.3452 22.8 5.05739 22.8 5.8C22.8 6.54261 22.505 7.2548 21.9799 7.7799C21.4548 8.305 20.7426 8.6 20 8.6C19.2573 8.6 18.5452 8.305 18.0201 7.7799C17.495 7.2548 17.2 6.54261 17.2 5.8C17.2 5.05739 17.495 4.3452 18.0201 3.8201C18.5452 3.295 19.2573 3 20 3ZM19.65 19.8V24C19.65 24.7744 19.0243 25.4 18.25 25.4C17.4756 25.4 16.85 24.7744 16.85 24V16.1469L16.2856 17.0437C15.8743 17.7 15.0081 17.8925 14.3562 17.4812C13.7043 17.07 13.5075 16.2037 13.9187 15.5519L16.1806 11.96C16.9506 10.7394 18.2937 9.99562 19.7331 9.99562H20.2712C21.715 9.99562 23.0581 10.735 23.8237 11.96L26.0856 15.5562C26.4968 16.2125 26.3 17.0744 25.6481 17.4856C24.9962 17.8969 24.13 17.7 23.7187 17.0481L23.15 16.1469V24C23.15 24.7744 22.5243 25.4 21.75 25.4C20.9756 25.4 20.35 24.7744 20.35 24V19.8H19.65Z" fill="white"/>
</g>
</g>
<defs>
<clipPath id="clip0_771_588">
<rect width="28" height="28" fill="white"/>
</clipPath>
<clipPath id="clip1_771_588">
<rect width="28" height="22.4" fill="white" transform="translate(-1 3)"/>
</clipPath>
</defs>
</svg>
