<svg width="25" height="24" viewBox="0 0 25 24" fill="none" xmlns="http://www.w3.org/2000/svg">
<path fill-rule="evenodd" clip-rule="evenodd" d="M6.5 2C5.70435 2 4.94129 2.31607 4.37868 2.87868C3.81607 3.44129 3.5 4.20435 3.5 5V19C3.5 19.7956 3.81607 20.5587 4.37868 21.1213C4.94129 21.6839 5.70435 22 6.5 22H12.5C13.2956 22 14.0587 21.6839 14.6213 21.1213C15.1839 20.5587 15.5 19.7956 15.5 19V5C15.5 4.20435 15.1839 3.44129 14.6213 2.87868C14.0587 2.31607 13.2956 2 12.5 2H6.5ZM16.793 7.293C16.9805 7.10553 17.2348 7.00021 17.5 7.00021C17.7652 7.00021 18.0195 7.10553 18.207 7.293L22.207 11.293C22.3945 11.4805 22.4998 11.7348 22.4998 12C22.4998 12.2652 22.3945 12.5195 22.207 12.707L18.207 16.707C18.0184 16.8892 17.7658 16.99 17.5036 16.9877C17.2414 16.9854 16.9906 16.8802 16.8052 16.6948C16.6198 16.5094 16.5146 16.2586 16.5123 15.9964C16.51 15.7342 16.6108 15.4816 16.793 15.293L19.086 13H10.5C10.2348 13 9.98043 12.8946 9.79289 12.7071C9.60536 12.5196 9.5 12.2652 9.5 12C9.5 11.7348 9.60536 11.4804 9.79289 11.2929C9.98043 11.1054 10.2348 11 10.5 11H19.086L16.793 8.707C16.6055 8.51947 16.5002 8.26516 16.5002 8C16.5002 7.73484 16.6055 7.48053 16.793 7.293Z" fill="white"/>
</svg>
