<svg width="28" height="28" viewBox="0 0 28 28" fill="none" xmlns="http://www.w3.org/2000/svg">
<path d="M12.6201 10.6488C11.8348 11.2313 10.8836 11.5471 9.90582 11.55C8.88819 11.55 7.95457 11.2088 7.19069 10.6488C6.53444 11.1956 5.87994 11.9788 5.34444 12.9439C4.09932 15.1865 3.96194 17.4869 5.03819 18.0836C5.51769 18.3566 6.02344 18.1519 6.54494 17.6496C6.44731 18.1907 6.39841 18.7395 6.39882 19.2894C6.39882 21.8601 7.39632 23.9374 8.62394 23.9374C9.36419 23.9374 9.73082 23.1805 9.90669 22.0229C10.0817 23.1726 10.4492 23.9374 11.1842 23.9374C12.4066 23.9374 13.4119 21.8593 13.4119 19.2894C13.4119 18.7119 13.3577 18.1606 13.2649 17.6505C13.7899 18.1536 14.2939 18.3619 14.7752 18.0854C15.8488 17.4886 15.7097 15.1891 14.4654 12.9456C13.9317 11.9796 13.2754 11.1974 12.6192 10.6505L12.6201 10.6488ZM9.90494 10.675C10.3968 10.6748 10.8838 10.5778 11.3382 10.3894C11.7925 10.201 12.2053 9.92498 12.553 9.57706C12.9007 9.22914 13.1764 8.81615 13.3645 8.36167C13.5525 7.90719 13.6492 7.42011 13.6491 6.92825C13.6489 6.4364 13.5518 5.94939 13.3635 5.49504C13.1751 5.04068 12.899 4.62789 12.5511 4.28021C12.2032 3.93254 11.7902 3.6568 11.3357 3.46873C10.8813 3.28066 10.3942 3.18396 9.90232 3.18413C8.90873 3.18448 7.95598 3.57951 7.25366 4.28233C6.55134 4.98514 6.15697 5.93817 6.15732 6.93175C6.15767 7.92534 6.5527 8.87809 7.25552 9.58041C7.95833 10.2827 8.91136 10.6771 9.90494 10.6768V10.675ZM19.2386 15.4613C20.5581 15.4613 21.6291 14.3903 21.6291 13.069C21.6291 11.7478 20.5563 10.675 19.2377 10.675C18.6028 10.6752 17.994 10.9275 17.5451 11.3764C17.0962 11.8254 16.8439 12.4341 16.8437 13.069C16.8442 13.7039 17.0967 14.3126 17.5458 14.7613C17.9948 15.2101 18.6037 15.4613 19.2386 15.4613ZM22.1523 16.9111C21.8111 16.2943 21.3928 15.7938 20.9728 15.4438C20.4828 15.8025 19.8878 16.0213 19.2377 16.0213C18.5867 16.0213 17.9899 15.8025 17.5026 15.4438C17.0826 15.7938 16.6643 16.2943 16.3213 16.9111C15.5251 18.3444 15.4376 19.8144 16.1253 20.1959C16.4316 20.3709 16.7553 20.2396 17.0878 19.9194C17.027 20.2652 16.9965 20.6156 16.9968 20.9668C16.9968 22.6118 17.6338 23.9391 18.4187 23.9391C18.8912 23.9391 19.1274 23.4553 19.2394 22.7159C19.3514 23.4509 19.5859 23.9383 20.0567 23.9383C20.8381 23.9383 21.4803 22.61 21.4803 20.9668C21.4803 20.5993 21.4453 20.2458 21.3858 19.9203C21.7209 20.2414 22.0438 20.3753 22.3518 20.1976C23.0361 19.8179 22.9468 18.347 22.1523 16.9138V16.9111Z" fill="white"/>
</svg>
