<svg width="56" height="56" viewBox="0 0 56 56" fill="none" xmlns="http://www.w3.org/2000/svg">
<rect width="56" height="56" rx="28" fill="#FF9900" fill-opacity="0.1"/>
<path d="M37.0077 35.9214C38.4939 34.2368 39.4776 32.1689 39.8468 29.9529C40.216 27.7369 39.9559 25.4618 39.0961 23.3863C38.2364 21.3108 36.8114 19.5182 34.9833 18.2124C33.1552 16.9067 30.9974 16.1401 28.7552 16V27.6705L37.0077 35.9214ZM35.9454 36.9837L28.7552 29.7906V39.9606C31.4172 39.7969 33.948 38.748 35.9454 36.9807V36.9837ZM27.2548 39.9621V29.7921L20.0646 36.9837C22.0622 38.7505 24.593 39.7988 27.2548 39.9621ZM19.0023 35.9214C17.5161 34.2368 16.5324 32.1689 16.1632 29.9529C15.794 27.7369 16.0541 25.4618 16.9139 23.3863C17.7736 21.3108 19.1986 19.5182 21.0267 18.2124C22.8548 16.9067 25.0126 16.1401 27.2548 16V27.6705L19.0023 35.9214Z" fill="#FF9900"/>
</svg>
