<svg width="368" height="294" viewBox="0 0 368 294" fill="none" xmlns="http://www.w3.org/2000/svg">
<path d="M235.207 209.498C200.42 196.43 187.903 201.817 152.814 204.647C124.149 206.933 90.2874 197.503 68.7152 172.711C11.885 107.407 98.2842 40.0365 147.125 25.6011C181.538 15.4581 203.25 28.5411 226.88 58.0366C236.067 69.51 243.653 83.4015 254.464 93.0373C266.077 103.371 279.962 103.195 290.906 111.795C343.987 153.491 281.63 226.925 235.207 209.498Z" fill="#1F8E1F"/>
<path opacity="0.9" d="M235.207 209.498C200.42 196.43 187.903 201.817 152.814 204.647C124.149 206.933 90.2874 197.503 68.7152 172.711C11.885 107.407 98.2842 40.0365 147.125 25.6011C181.538 15.4581 203.25 28.5411 226.88 58.0366C236.067 69.51 243.653 83.4015 254.464 93.0373C266.077 103.371 279.962 103.195 290.906 111.795C343.987 153.491 281.63 226.925 235.207 209.498Z" fill="white"/>
<path d="M182.464 293.148C250.319 293.148 305.326 288.989 305.326 283.858C305.326 278.727 250.319 274.568 182.464 274.568C114.609 274.568 59.6012 278.727 59.6012 283.858C59.6012 288.989 114.609 293.148 182.464 293.148Z" fill="#F5F5F5"/>
<path d="M118.093 234.716H72.8753V285.747H118.093V234.716Z" fill="#1F8E1F"/>
<path d="M140.701 234.716H95.4839V285.747H140.701V234.716Z" fill="#1F8E1F"/>
<path opacity="0.7" d="M118.093 234.716H72.8753V285.747H118.093V234.716Z" fill="white"/>
<path opacity="0.2" d="M140.694 234.716H118.041V285.747H140.694V234.716Z" fill="white"/>
<path d="M128.894 270.419C132.072 270.345 134.544 265.837 134.415 260.35C134.287 254.863 131.607 250.476 128.429 250.55C125.252 250.624 122.78 255.132 122.908 260.619C123.037 266.106 125.717 270.493 128.894 270.419Z" fill="white"/>
<path d="M132.131 258.809L129.676 258.868L129.581 254.708L127.684 254.752L127.78 258.912L125.082 258.978L125.156 262.22L127.853 262.154L127.956 266.277L129.853 266.233L129.757 262.109L132.212 262.051L132.131 258.809Z" fill="#1F8E1F"/>
<path d="M100.989 234.716H91.831V243.874H100.989V234.716Z" fill="#F5F5F5"/>
<path d="M100.989 253.01H91.831V285.747H100.989V253.01Z" fill="#F5F5F5"/>
<path d="M132.579 192.858H95.4839V234.731H132.579V192.858Z" fill="#1F8E1F"/>
<path d="M151.131 192.858H114.035V234.731H151.131V192.858Z" fill="#1F8E1F"/>
<path opacity="0.7" d="M126.795 192.858H95.4839V234.731H126.795V192.858Z" fill="white"/>
<path opacity="0.2" d="M151.131 192.858H126.795V234.731H151.131V192.858Z" fill="white"/>
<path d="M143.678 213.901C143.788 218.399 141.759 222.103 139.15 222.162C136.541 222.221 134.343 218.619 134.24 214.121C134.138 209.623 136.166 205.896 138.768 205.896C141.37 205.896 143.575 209.395 143.678 213.901Z" fill="white"/>
<path d="M141.826 212.629L139.812 212.673L139.731 209.256L138.173 209.292L138.254 212.71L136.034 212.762L136.1 215.422L138.312 215.371L138.393 218.759L139.951 218.715L139.871 215.334L141.884 215.29L141.826 212.629Z" fill="#1F8E1F"/>
<path d="M111.037 192.858H103.517V234.731H111.037V192.858Z" fill="#F5F5F5"/>
<path d="M175.342 136.145C175.342 136.145 164.515 187.419 163.582 204.427C162.648 221.434 167.088 264.175 167.088 264.175L180.92 266.38L183.559 211.835L189.623 170.256C189.623 170.256 195.973 204.066 198.707 211.982C201.442 219.898 214.488 242.852 225.263 261.191L234.524 254.407C234.524 254.407 217.215 204.912 214.26 195.246C211.305 185.581 213.304 144.605 204.19 132.97L175.342 136.145Z" fill="#1F8E1F"/>
<path opacity="0.4" d="M175.342 136.145C175.342 136.145 164.515 187.419 163.582 204.427C162.648 221.434 167.088 264.175 167.088 264.175L180.92 266.38L183.559 211.835L189.623 170.256C189.623 170.256 195.973 204.066 198.707 211.982C201.442 219.898 214.488 242.852 225.263 261.191L234.524 254.407C234.524 254.407 217.215 204.912 214.26 195.246C211.305 185.581 213.304 144.605 204.19 132.97L175.342 136.145Z" fill="white"/>
<path d="M177.914 278.368C177.848 278.779 170.674 277.221 170.674 277.221L170.189 270.136L169.998 267.357L177.348 266.71C177.348 266.71 177.473 268.827 177.605 271.253C177.752 274.428 177.995 278.125 177.914 278.368Z" fill="#B55B52"/>
<path opacity="0.2" d="M177.576 271.253L170.189 270.136L169.998 267.357L177.348 266.71C177.348 266.71 177.444 268.827 177.576 271.253Z" fill="black"/>
<path d="M165.419 279.712L165.125 279.308C165.037 279.183 162.92 276.221 163.229 274.766C163.258 274.624 163.317 274.491 163.404 274.375C163.49 274.26 163.601 274.165 163.729 274.097C163.833 274.034 163.952 274.001 164.074 274.001C164.196 274.001 164.315 274.034 164.42 274.097C165.471 274.737 165.434 278.764 165.427 279.242L165.419 279.712ZM164.096 274.332C164.021 274.335 163.948 274.355 163.883 274.391C163.799 274.438 163.726 274.502 163.669 274.58C163.612 274.657 163.572 274.745 163.552 274.839C163.324 275.839 164.515 277.779 165.096 278.676C165.096 277.258 164.905 274.773 164.251 274.376C164.204 274.348 164.151 274.332 164.096 274.332Z" fill="#1F8E1F"/>
<path d="M164.677 279.757L164.251 279.58C163.795 279.397 159.796 277.728 159.547 276.295C159.524 276.149 159.539 276 159.592 275.862C159.645 275.724 159.733 275.602 159.848 275.509C159.968 275.396 160.114 275.314 160.272 275.27C160.431 275.225 160.598 275.219 160.759 275.251C162.376 275.531 164.375 279.191 164.434 279.345L164.677 279.757ZM160.553 275.56C160.374 275.56 160.202 275.632 160.076 275.758C160.001 275.813 159.943 275.887 159.908 275.973C159.873 276.059 159.862 276.152 159.877 276.244C160.039 277.184 162.538 278.449 163.92 279.081C163.346 278.103 161.862 275.78 160.7 275.575L160.553 275.56Z" fill="#1F8E1F"/>
<path d="M177.679 277.971L170.255 276.802C169.794 276.729 169.322 276.832 168.932 277.089C167.211 278.251 165.274 279.056 163.236 279.455C160.061 279.904 157.239 279.279 156.974 280.19C156.824 280.783 156.877 281.408 157.125 281.967C157.373 282.525 157.801 282.984 158.341 283.27C159.385 283.814 172.174 285.798 177.569 286.622C177.851 286.664 178.14 286.642 178.412 286.556C178.685 286.471 178.934 286.325 179.142 286.128C179.349 285.932 179.509 285.691 179.61 285.424C179.71 285.157 179.749 284.87 179.722 284.586L179.259 279.661C179.219 279.245 179.043 278.853 178.757 278.547C178.471 278.241 178.092 278.039 177.679 277.971Z" fill="#222221"/>
<path d="M165.257 262.477L166.419 268.592L181.56 270.033L182.008 263.844L165.257 262.477Z" fill="#1F8E1F"/>
<path d="M239.176 262.08C239.382 262.448 232.797 265.689 232.797 265.689L228.431 260.889L226.145 258.368L228.467 256.163L231.481 253.319C231.481 253.319 231.79 253.672 232.297 254.23L234.972 257.244C236.957 259.493 239.074 261.896 239.176 262.08Z" fill="#B55B52"/>
<path opacity="0.2" d="M234.972 257.251L228.431 260.889L226.145 258.368L228.467 256.163L232.297 254.23L234.972 257.251Z" fill="black"/>
<path d="M230.658 268.622L230.276 268.445C230.136 268.386 226.909 266.909 226.601 265.608C226.572 265.478 226.576 265.343 226.612 265.215C226.648 265.087 226.715 264.969 226.806 264.873C226.905 264.747 227.035 264.649 227.183 264.59C227.332 264.53 227.493 264.511 227.652 264.535C228.96 264.748 230.32 267.887 230.474 268.247L230.658 268.622ZM227.534 264.844C227.445 264.846 227.358 264.868 227.279 264.909C227.2 264.95 227.132 265.008 227.078 265.079C227.02 265.139 226.978 265.213 226.956 265.294C226.934 265.375 226.933 265.46 226.953 265.542C227.13 266.365 228.953 267.423 230.004 267.953C229.496 266.865 228.453 265.013 227.622 264.851L227.534 264.844Z" fill="#1F8E1F"/>
<path d="M225.821 270.165C225.16 270.234 224.495 270.065 223.947 269.687C223.808 269.547 223.712 269.371 223.669 269.178C223.626 268.986 223.638 268.785 223.705 268.599C223.756 268.372 223.861 268.16 224.01 267.981C224.16 267.802 224.35 267.661 224.565 267.57C226.483 266.703 230.768 268.886 230.952 268.982L231.319 269.173L230.922 269.29C229.261 269.775 227.55 270.069 225.821 270.165ZM225.682 267.695C225.345 267.684 225.009 267.745 224.697 267.872C224.529 267.944 224.381 268.054 224.265 268.195C224.148 268.336 224.067 268.502 224.028 268.68C223.984 268.805 223.975 268.939 224.001 269.068C224.027 269.197 224.087 269.317 224.175 269.415C225.057 270.268 228.651 269.526 230.408 269.055C229.511 268.666 227.24 267.695 225.682 267.695Z" fill="#1F8E1F"/>
<path d="M238.75 261.815L232.209 265.49C231.8 265.716 231.492 266.09 231.349 266.534C230.722 268.513 229.702 270.346 228.35 271.922C226.145 274.252 223.543 275.516 223.903 276.39C224.151 276.948 224.579 277.406 225.12 277.69C225.66 277.974 226.28 278.068 226.88 277.956C228.034 277.736 239.294 271.341 244.035 268.651C244.283 268.509 244.496 268.312 244.657 268.075C244.818 267.838 244.922 267.567 244.963 267.283C245.003 267 244.978 266.711 244.89 266.438C244.802 266.166 244.653 265.917 244.454 265.711L241.036 262.131C240.743 261.835 240.36 261.643 239.947 261.586C239.533 261.529 239.113 261.609 238.75 261.815Z" fill="#222221"/>
<path d="M219.817 258.03L224.528 262.117L237.295 253.841L233.804 248.71L219.817 258.03Z" fill="#1F8E1F"/>
<path d="M190.696 72.1265C191.1 71.8987 199.516 71.5165 207.601 73.2143C215.686 74.9122 201.28 84.8567 201.28 84.8567L196.767 102.923L188.498 102.997L187.499 77.345L190.696 72.1265Z" fill="#EBEBEB"/>
<path d="M207.593 73.2364L190.056 100.909L191.997 71.8914C191.997 71.8914 185.624 72.0531 183.647 72.6264C181.67 73.1997 179.972 77.8155 178.554 84.1365C177.135 90.4575 174.982 105.613 174.982 105.613L164.905 190.138C164.905 190.138 199.354 197.488 215.583 191.777C215.583 191.777 209.482 115.859 210.489 111.17C211.496 106.48 214.752 89.3256 214.752 89.3256C214.752 89.3256 219.265 80.7628 217.303 78.2418C215.34 75.7207 207.593 73.2364 207.593 73.2364Z" fill="#1F8E1F"/>
<path d="M186.918 126.48L189.417 193.556" stroke="white" stroke-width="0.75" stroke-linecap="round" stroke-linejoin="round"/>
<path d="M184.789 74.0662L123.991 94.7871L139.303 139.716L200.101 118.995L184.789 74.0662Z" fill="#1F8E1F"/>
<path d="M184.786 74.0669L139.297 139.717L130.757 135.844L115.447 90.9205L176.246 70.2008L184.786 74.0669Z" fill="#1F8E1F"/>
<path opacity="0.7" d="M184.786 74.0669L123.987 94.7866L139.297 139.717L130.757 135.844L115.447 90.9205L176.246 70.2008L184.786 74.0669Z" fill="white"/>
<path opacity="0.46" d="M184.789 74.0662L123.991 94.7871L139.303 139.716L200.101 118.995L184.789 74.0662Z" fill="white"/>
<path d="M171.781 120.184C179.111 114.187 180.191 103.384 174.194 96.0544C168.197 88.7247 157.394 87.6444 150.064 93.6414C142.734 99.6384 141.654 110.442 147.651 117.771C153.648 125.101 164.452 126.181 171.781 120.184Z" fill="#FAFAFA"/>
<path d="M171.218 100.968L164.229 103.254L161.979 96.3889L156.577 98.1603L158.826 105.025L151.138 107.539L152.88 112.882L160.576 110.361L162.803 117.167L168.205 115.396L165.978 108.59L172.968 106.304L171.218 100.968Z" fill="#1F8E1F"/>
<path d="M191.96 36.2145V25.5202C191.96 25.5202 203.669 20.2503 214.863 31.0107L209.718 41.3889L191.96 36.2145Z" fill="#1F8E1F"/>
<path d="M203.205 27.0861L201.879 26.8241L201.077 30.8838L202.404 31.1457L203.205 27.0861Z" fill="white"/>
<path d="M200.259 27.9164L199.997 29.2432L204.056 30.0448L204.318 28.718L200.259 27.9164Z" fill="white"/>
<path d="M208.865 55.9566C206.726 59.0362 204.764 58.6099 204.764 58.6099C204.121 59.7793 203.283 60.8307 202.287 61.719C201.934 71.3254 204.764 73.92 204.764 73.92C201.824 78.4549 198.193 78.33 194.518 77.007C190.843 75.684 190.652 72.8028 190.652 72.8028C193.974 71.1711 194.018 68.6133 193.54 66.864C193.35 66.1869 193.068 65.539 192.702 64.9383C186.462 63.2257 184.661 57.2428 185.088 51.598C185.352 48.1743 186.192 44.8197 187.572 41.6755L191.247 36.1116L205.616 39.0516L206.388 46.6662L203.448 52.311C208.63 48.4816 211.026 52.8402 208.865 55.9566Z" fill="#B55B52"/>
<path d="M191.96 55.8831C191.611 55.885 191.262 55.8604 190.916 55.8096C190.883 55.8038 190.851 55.7915 190.823 55.7734C190.794 55.7553 190.769 55.7317 190.75 55.7041C190.73 55.6765 190.717 55.6453 190.709 55.6123C190.702 55.5793 190.701 55.5452 190.707 55.5119C190.713 55.4786 190.725 55.4468 190.743 55.4182C190.761 55.3897 190.785 55.365 190.812 55.3455C190.84 55.326 190.871 55.3122 190.904 55.3048C190.937 55.2974 190.971 55.2966 191.005 55.3024C191.005 55.3024 194.68 55.9419 196.26 53.2224C196.277 53.1929 196.299 53.1671 196.326 53.1464C196.353 53.1256 196.384 53.1104 196.416 53.1015C196.449 53.0926 196.483 53.0903 196.517 53.0947C196.551 53.099 196.583 53.1099 196.613 53.1268C196.642 53.1437 196.668 53.1662 196.689 53.1931C196.709 53.22 196.725 53.2507 196.733 53.2834C196.742 53.3162 196.745 53.3504 196.74 53.384C196.736 53.4177 196.725 53.4502 196.708 53.4796C195.495 55.5523 193.254 55.8831 191.96 55.8831Z" fill="#263238"/>
<path d="M190.953 52.5241C191.107 52.5241 191.732 47.8348 191.732 47.8348L188.395 51.8479C188.739 52.1527 189.15 52.3726 189.594 52.49C190.038 52.6074 190.504 52.6191 190.953 52.5241Z" fill="#A02724"/>
<path d="M196.12 47.9304C196.039 48.511 195.679 48.9447 195.319 48.8932C194.959 48.8418 194.731 48.3273 194.812 47.7466C194.893 47.166 195.253 46.725 195.613 46.7764C195.973 46.8279 196.201 47.3424 196.12 47.9304Z" fill="#263238"/>
<path d="M189.02 47.2836C188.939 47.8643 188.579 48.2979 188.219 48.2465C187.859 48.195 187.631 47.6879 187.712 47.0999C187.793 46.5119 188.153 46.0856 188.513 46.137C188.873 46.1885 189.138 46.6956 189.02 47.2836Z" fill="#263238"/>
<path d="M199.001 45.299C198.936 45.2983 198.873 45.2793 198.818 45.2442C198.764 45.2091 198.72 45.1593 198.693 45.1006C197.818 43.241 196.583 43.4836 196.532 43.4909C196.446 43.5036 196.359 43.4839 196.288 43.4357C196.216 43.3875 196.166 43.3143 196.145 43.2304C196.125 43.1466 196.137 43.0582 196.178 42.9826C196.22 42.907 196.288 42.8498 196.37 42.8221C196.444 42.8221 198.193 42.4105 199.31 44.8066C199.33 44.848 199.341 44.893 199.343 44.9388C199.345 44.9846 199.338 45.0305 199.323 45.0736C199.307 45.1167 199.283 45.1562 199.252 45.1899C199.22 45.2235 199.183 45.2507 199.141 45.2696C199.097 45.2895 199.049 45.2995 199.001 45.299Z" fill="#263238"/>
<path d="M186.764 44.0642C186.72 44.0646 186.677 44.0563 186.636 44.0399C186.596 44.0235 186.559 43.9993 186.528 43.9687C186.496 43.9372 186.47 43.8995 186.453 43.8578C186.435 43.8162 186.426 43.7714 186.426 43.7261C186.426 43.6809 186.435 43.6361 186.453 43.5945C186.47 43.5528 186.496 43.5151 186.528 43.4836C186.617 43.3954 188.586 41.3815 191.071 42.3737C191.113 42.39 191.152 42.4145 191.185 42.4459C191.218 42.4773 191.245 42.5149 191.263 42.5566C191.282 42.5983 191.292 42.6432 191.293 42.6888C191.294 42.7343 191.286 42.7796 191.269 42.8221C191.233 42.9073 191.166 42.975 191.08 43.0107C190.995 43.0465 190.899 43.0474 190.813 43.0132C188.748 42.19 187.05 43.9393 187.028 43.9613C186.995 43.9975 186.954 44.0255 186.908 44.0434C186.862 44.0612 186.813 44.0683 186.764 44.0642Z" fill="#263238"/>
<path opacity="0.2" d="M195.907 64.5487C195.332 65.4954 194.525 66.2797 193.562 66.8272C193.372 66.1501 193.09 65.5022 192.724 64.9015C193.798 65.0051 194.882 64.885 195.907 64.5487Z" fill="black"/>
<path d="M204.933 39.6984C204.933 39.6984 192.533 43.0132 187.594 41.2566C182.655 39.4999 184.382 33.4288 185.051 32.8555C185.962 32.0764 187.947 35.2957 187.947 35.2957C187.947 35.2957 186.323 31.8486 187.594 31.0915C188.866 30.3345 189.064 35.5015 193.695 34.9576C198.325 34.4137 211.158 30.9225 211.915 38.9928C212.37 43.8277 211.588 48.6988 209.644 53.1489C209.644 53.1489 208.961 48.7389 203.5 52.2448C203.5 52.2448 201.684 50.9512 203.5 49.1725C206.66 46.0929 205.558 42.043 204.933 39.6984Z" fill="#263238"/>
<path d="M203.617 39.0515C203.617 39.0515 201.464 46.0928 205.425 45.7547C209.387 45.4166 206.954 38.0667 206.954 38.0667L203.617 39.0515Z" fill="#263238"/>
<path d="M193.202 35.3765C193.202 35.3765 190.615 33.4728 191.276 32.091C191.938 30.7092 192.967 34.0461 198.119 33.4361C203.272 32.826 209.387 32.363 210.519 35.7807C211.651 39.1985 200.229 36.5966 200.229 36.5966L193.188 38.1107L193.202 35.3765Z" fill="#263238"/>
<path d="M192.305 119.505L187.33 118.101C187.33 118.101 181.45 117.741 180.957 119.982C180.465 122.224 180.222 126.09 182.559 126.399C184.897 126.708 192.173 126.252 192.173 126.252L192.305 119.505Z" fill="#B55B52"/>
<path d="M209.284 85.3565L217.303 78.1976C217.303 78.1976 227.233 100.248 227.791 108.722C228.35 117.197 221.801 121.004 216.252 122.43C210.703 123.856 192.313 127.656 192.313 127.656L191.321 117.425C191.321 117.425 210.908 114.08 218.449 110.618C218.42 110.641 211.636 90.9058 209.284 85.3565Z" fill="#1F8E1F"/>
<path opacity="0.1" d="M192.313 127.678L210.85 123.716L210.901 126.509L192.313 127.678Z" fill="black"/>
<path d="M194.533 76.9702L196.642 82.5415C199.993 80.0741 203.077 77.2634 205.844 74.1552L202.787 69.0616C202.787 69.0616 199.986 74.6329 194.533 76.9702Z" fill="#FAFAFA"/>
<path d="M192.989 70.8771C193.05 72.9968 193.577 75.0771 194.533 76.9702L192.232 82.1152C191.067 80.9357 190.18 79.512 189.633 77.9472C189.086 76.3823 188.895 74.7155 189.071 73.0674L192.989 70.8771Z" fill="#FAFAFA"/>
</svg>
