<svg width="368" height="274" viewBox="0 0 368 274" fill="none" xmlns="http://www.w3.org/2000/svg">
<path d="M311.64 154.585C319.056 188.395 298.344 210.239 269.664 209.225C255.912 208.74 239.492 193.621 225.99 190.255C208.35 185.845 193.092 191.556 176.238 192.394C134.307 194.466 134.858 177.355 106.604 155.291C86.7594 139.782 54.7354 141.48 44.1294 114.322C31.1346 81.1219 68.3844 65.0769 96.6819 70.0014C129.198 75.6462 138.202 35.1624 187.866 39.6459C236.67 44.0559 301.196 103.635 311.64 154.585Z" fill="#1F8E1F"/>
<path opacity="0.9" d="M311.64 154.585C319.056 188.395 298.344 210.239 269.664 209.225C255.912 208.74 239.492 193.621 225.99 190.255C208.35 185.845 193.092 191.556 176.238 192.394C134.307 194.466 134.858 177.355 106.604 155.291C86.7594 139.782 54.7354 141.48 44.1294 114.322C31.1346 81.1219 68.3844 65.0769 96.6819 70.0014C129.198 75.6462 138.202 35.1624 187.866 39.6459C236.67 44.0559 301.196 103.635 311.64 154.585Z" fill="white"/>
<path d="M183.75 273.832C262.456 273.832 326.259 270.106 326.259 265.511C326.259 260.916 262.456 257.191 183.75 257.191C105.044 257.191 41.2408 260.916 41.2408 265.511C41.2408 270.106 105.044 273.832 183.75 273.832Z" fill="#F5F5F5"/>
<path d="M191.401 228.217H97.6374C96.1296 228.196 94.6857 227.605 93.5951 226.564C92.5046 225.523 91.8481 224.107 91.7574 222.602L83.349 59.7628C83.3024 59.0385 83.4059 58.3124 83.653 57.6299C83.9002 56.9475 84.2856 56.3235 84.7852 55.7969C85.2848 55.2704 85.8878 54.8528 86.5564 54.5702C87.2249 54.2876 87.9446 54.1462 88.6704 54.1548H182.434C183.941 54.1743 185.385 54.7634 186.476 55.8036C187.567 56.8439 188.224 58.2583 188.314 59.7628L196.708 222.602C196.755 223.326 196.651 224.051 196.405 224.733C196.159 225.414 195.775 226.038 195.277 226.565C194.779 227.092 194.178 227.511 193.511 227.795C192.845 228.079 192.126 228.223 191.401 228.217Z" fill="#1F8E1F"/>
<path opacity="0.8" d="M191.401 228.217H97.6374C96.1296 228.196 94.6857 227.605 93.5951 226.564C92.5046 225.523 91.8481 224.107 91.7574 222.602L83.349 59.7628C83.3024 59.0385 83.4059 58.3124 83.653 57.6299C83.9002 56.9475 84.2856 56.3235 84.7852 55.7969C85.2848 55.2704 85.8878 54.8528 86.5564 54.5702C87.2249 54.2876 87.9446 54.1462 88.6704 54.1548H182.434C183.941 54.1743 185.385 54.7634 186.476 55.8036C187.567 56.8439 188.224 58.2583 188.314 59.7628L196.708 222.602C196.755 223.326 196.651 224.051 196.405 224.733C196.159 225.414 195.775 226.038 195.277 226.565C194.779 227.092 194.178 227.511 193.511 227.795C192.845 228.079 192.126 228.223 191.401 228.217Z" fill="white"/>
<path d="M173.181 48.8481H162.81V49.5831H173.181V48.8481Z" fill="#1F8E1F"/>
<path d="M159.216 48.8481H155.416V49.5831H159.216V48.8481Z" fill="#1F8E1F"/>
<path d="M195.436 217.883H105.766C104.322 217.87 102.937 217.309 101.89 216.315C100.843 215.321 100.211 213.967 100.122 212.525L92.0955 56.7788C92.0509 56.0857 92.15 55.3907 92.3866 54.7376C92.6232 54.0846 92.9922 53.4874 93.4704 52.9836C93.9487 52.4799 94.5258 52.0803 95.1657 51.8101C95.8056 51.5399 96.4945 51.4048 97.189 51.4133H186.859C188.303 51.4293 189.687 51.9916 190.733 52.9872C191.779 53.9827 192.409 55.3375 192.496 56.7788L200.523 212.525C200.567 213.218 200.468 213.912 200.232 214.564C199.996 215.216 199.627 215.812 199.15 216.315C198.672 216.818 198.096 217.217 197.457 217.487C196.818 217.757 196.13 217.892 195.436 217.883Z" fill="#1F8E1F"/>
<path d="M195.437 214.304H105.767C105.241 214.286 104.74 214.075 104.359 213.712C103.978 213.349 103.744 212.859 103.701 212.334L95.6676 56.595C95.6494 56.3879 95.6754 56.1792 95.7438 55.9828C95.8122 55.7864 95.9215 55.6068 96.0645 55.4558C96.2079 55.3051 96.3816 55.1866 96.5742 55.108C96.7668 55.0295 96.9739 54.9927 97.1817 55.0001H186.852C187.376 55.0199 187.875 55.2313 188.255 55.5943C188.634 55.9573 188.867 56.4467 188.91 56.9699L196.98 212.709C196.998 212.915 196.972 213.123 196.903 213.319C196.835 213.515 196.726 213.693 196.584 213.844C196.442 213.995 196.269 214.114 196.078 214.193C195.886 214.272 195.68 214.31 195.473 214.304H195.437ZM97.1817 55.1838C96.999 55.1779 96.817 55.2102 96.6475 55.2785C96.4779 55.3468 96.3244 55.4498 96.1968 55.5807C96.0741 55.7165 95.9802 55.8757 95.9209 56.0488C95.8615 56.2219 95.8378 56.4052 95.8514 56.5877L103.878 212.327C103.918 212.804 104.132 213.249 104.479 213.58C104.825 213.91 105.281 214.102 105.759 214.12H195.429C195.611 214.127 195.792 214.096 195.961 214.027C196.129 213.959 196.281 213.855 196.407 213.723C196.532 213.59 196.628 213.431 196.688 213.257C196.747 213.083 196.769 212.899 196.752 212.716L188.733 56.9772C188.694 56.5009 188.482 56.0554 188.136 55.7249C187.791 55.3945 187.337 55.202 186.859 55.1838H97.1817Z" fill="white"/>
<path opacity="0.3" d="M164.072 111.761C174.271 101.295 173.607 84.1067 162.588 73.3695C151.57 62.6322 134.37 62.4123 124.171 72.8781C113.972 83.344 114.636 100.532 125.655 111.27C136.673 122.007 153.873 122.227 164.072 111.761Z" fill="white"/>
<path d="M166.11 92.3234C166.316 95.9353 165.589 99.5395 164.001 102.79C162.281 106.276 159.611 109.205 156.299 111.241C152.987 113.276 149.167 114.334 145.28 114.293C141.252 114.256 137.301 113.178 133.814 111.162C130.326 109.146 127.419 106.262 125.376 102.79C123.473 99.6146 122.377 96.0206 122.186 92.3234C122.005 89.4879 122.411 86.6456 123.379 83.9743C124.347 81.3029 125.855 78.8601 127.811 76.7986C129.766 74.7371 132.126 73.1014 134.742 71.9938C137.358 70.8862 140.175 70.3305 143.016 70.3616C148.929 70.4232 154.6 72.7232 158.885 76.7983C163.17 80.8734 165.752 86.4208 166.11 92.3234Z" fill="white"/>
<path d="M163.979 102.79C162.259 106.276 159.589 109.206 156.277 111.241C152.965 113.276 149.145 114.334 145.258 114.293C141.23 114.256 137.279 113.178 133.791 111.162C130.304 109.146 127.397 106.262 125.354 102.79C130.94 98.9325 137.573 96.8803 144.361 96.9099C151.331 96.9361 158.144 98.9782 163.979 102.79Z" fill="#1F8E1F"/>
<path d="M150.93 91.8127C154.605 88.0421 154.364 81.8482 150.393 77.9783C146.422 74.1083 140.224 74.0278 136.549 77.7984C132.875 81.569 133.115 87.7629 137.087 91.6329C141.058 95.5028 147.256 95.5833 150.93 91.8127Z" fill="#1F8E1F"/>
<path d="M182.581 157.29H112.367C111.755 157.284 111.169 157.046 110.725 156.625C110.282 156.203 110.015 155.629 109.978 155.019L109.449 144.729C109.431 144.436 109.473 144.143 109.573 143.867C109.674 143.592 109.83 143.34 110.032 143.127C110.234 142.915 110.478 142.746 110.748 142.632C111.018 142.518 111.309 142.462 111.602 142.465H181.817C182.427 142.471 183.013 142.708 183.456 143.128C183.899 143.548 184.167 144.12 184.206 144.729L184.735 155.019C184.754 155.312 184.713 155.606 184.613 155.883C184.513 156.159 184.357 156.412 184.155 156.625C183.952 156.839 183.708 157.008 183.437 157.122C183.167 157.237 182.875 157.294 182.581 157.29Z" fill="white"/>
<path opacity="0.3" d="M161.083 136.784H131.756C131.142 136.779 130.553 136.541 130.108 136.118C129.663 135.695 129.396 135.118 129.36 134.505L129.25 132.3C129.231 132.007 129.272 131.713 129.372 131.436C129.472 131.16 129.628 130.907 129.83 130.694C130.032 130.48 130.276 130.311 130.547 130.197C130.818 130.082 131.109 130.025 131.403 130.029H160.723C161.334 130.035 161.921 130.273 162.364 130.694C162.807 131.116 163.074 131.69 163.111 132.3L163.229 134.505C163.247 134.798 163.205 135.091 163.105 135.367C163.005 135.643 162.85 135.895 162.649 136.109C162.448 136.322 162.205 136.492 161.936 136.608C161.666 136.724 161.376 136.784 161.083 136.784Z" fill="black"/>
<path opacity="0.3" d="M171.99 206.763H128.059C127.019 206.75 126.022 206.345 125.268 205.628C124.514 204.911 124.059 203.935 123.995 202.897L123.737 197.825C123.711 197.327 123.787 196.828 123.96 196.36C124.133 195.892 124.4 195.464 124.744 195.102C125.088 194.741 125.502 194.453 125.96 194.256C126.419 194.06 126.913 193.959 127.412 193.959H171.329C172.369 193.972 173.366 194.378 174.12 195.095C174.873 195.812 175.328 196.787 175.393 197.825L175.65 202.897C175.676 203.394 175.601 203.891 175.429 204.358C175.257 204.826 174.991 205.253 174.649 205.615C174.307 205.976 173.894 206.264 173.437 206.462C172.98 206.659 172.488 206.762 171.99 206.763Z" fill="black"/>
<path d="M183.868 182.177H113.646C113.035 182.169 112.449 181.931 112.006 181.51C111.563 181.089 111.296 180.516 111.257 179.906L110.728 169.616C110.71 169.323 110.752 169.029 110.852 168.753C110.952 168.477 111.108 168.225 111.31 168.012C111.512 167.799 111.756 167.63 112.026 167.515C112.297 167.4 112.588 167.342 112.881 167.345H183.096C183.707 167.351 184.294 167.589 184.737 168.01C185.18 168.432 185.447 169.005 185.485 169.616L186.021 179.906C186.038 180.199 185.995 180.492 185.894 180.767C185.794 181.043 185.638 181.295 185.436 181.508C185.234 181.72 184.991 181.89 184.721 182.005C184.451 182.12 184.161 182.179 183.868 182.177Z" fill="white"/>
<path d="M121.275 149.874C121.295 150.199 121.248 150.524 121.137 150.83C121.026 151.136 120.853 151.415 120.629 151.651C120.404 151.887 120.134 152.074 119.834 152.201C119.534 152.328 119.212 152.391 118.886 152.388C118.21 152.379 117.562 152.116 117.073 151.649C116.583 151.183 116.288 150.549 116.248 149.874C116.226 149.549 116.272 149.224 116.383 148.918C116.493 148.612 116.666 148.333 116.889 148.097C117.113 147.861 117.383 147.673 117.682 147.547C117.982 147.42 118.304 147.356 118.629 147.36C119.306 147.368 119.955 147.632 120.445 148.098C120.936 148.564 121.232 149.198 121.275 149.874Z" fill="#263238"/>
<path d="M129.015 149.874C129.036 150.198 128.99 150.524 128.88 150.829C128.769 151.135 128.597 151.415 128.373 151.651C128.149 151.887 127.88 152.074 127.58 152.201C127.281 152.328 126.958 152.391 126.633 152.388C125.957 152.381 125.308 152.118 124.818 151.651C124.328 151.185 124.034 150.549 123.995 149.874C123.973 149.549 124.019 149.224 124.13 148.918C124.24 148.612 124.412 148.333 124.636 148.097C124.86 147.861 125.13 147.673 125.429 147.547C125.728 147.42 126.051 147.356 126.376 147.36C127.053 147.366 127.701 147.63 128.191 148.096C128.681 148.563 128.976 149.198 129.015 149.874Z" fill="#263238"/>
<path d="M136.71 149.874C136.731 150.198 136.685 150.524 136.575 150.83C136.465 151.135 136.292 151.415 136.069 151.651C135.845 151.887 135.575 152.074 135.276 152.201C134.976 152.328 134.654 152.391 134.329 152.388C133.652 152.38 133.003 152.116 132.512 151.65C132.022 151.184 131.725 150.549 131.683 149.874C131.662 149.549 131.709 149.224 131.821 148.918C131.932 148.612 132.105 148.332 132.329 148.096C132.553 147.861 132.824 147.673 133.124 147.547C133.423 147.42 133.746 147.357 134.071 147.36C134.747 147.368 135.395 147.632 135.885 148.098C136.374 148.565 136.669 149.199 136.71 149.874Z" fill="#263238"/>
<path d="M144.464 149.874C144.484 150.198 144.438 150.523 144.327 150.828C144.216 151.134 144.044 151.413 143.82 151.649C143.597 151.884 143.327 152.072 143.028 152.199C142.729 152.326 142.408 152.39 142.083 152.388C141.406 152.38 140.757 152.116 140.267 151.65C139.776 151.184 139.479 150.549 139.437 149.874C139.417 149.55 139.463 149.225 139.574 148.919C139.685 148.614 139.857 148.335 140.081 148.099C140.304 147.863 140.574 147.676 140.873 147.549C141.172 147.422 141.493 147.358 141.818 147.36C142.495 147.368 143.144 147.632 143.635 148.098C144.125 148.564 144.422 149.198 144.464 149.874Z" fill="#263238"/>
<path d="M122.576 174.746C122.597 175.071 122.551 175.396 122.441 175.702C122.33 176.008 122.158 176.287 121.934 176.523C121.711 176.759 121.441 176.947 121.141 177.073C120.842 177.2 120.52 177.264 120.195 177.26C119.518 177.252 118.869 176.989 118.378 176.522C117.887 176.056 117.591 175.422 117.549 174.746C117.528 174.421 117.575 174.096 117.687 173.79C117.798 173.484 117.971 173.205 118.195 172.969C118.419 172.733 118.69 172.546 118.989 172.419C119.289 172.292 119.612 172.229 119.937 172.233C120.613 172.241 121.261 172.504 121.751 172.971C122.24 173.437 122.535 174.071 122.576 174.746Z" fill="#263238"/>
<path d="M130.301 174.746C130.321 175.07 130.274 175.395 130.163 175.701C130.053 176.006 129.88 176.285 129.657 176.521C129.433 176.757 129.164 176.944 128.865 177.071C128.566 177.198 128.244 177.263 127.919 177.26C127.243 177.252 126.594 176.989 126.103 176.522C125.612 176.056 125.316 175.422 125.273 174.746C125.252 174.422 125.298 174.097 125.408 173.791C125.519 173.485 125.691 173.205 125.915 172.969C126.138 172.733 126.408 172.546 126.708 172.419C127.007 172.292 127.33 172.229 127.655 172.233C128.332 172.241 128.98 172.504 129.471 172.97C129.962 173.436 130.258 174.071 130.301 174.746Z" fill="#263238"/>
<path d="M138.026 174.746C138.046 175.071 137.999 175.397 137.888 175.702C137.776 176.008 137.603 176.288 137.379 176.524C137.155 176.76 136.885 176.947 136.585 177.073C136.285 177.2 135.962 177.264 135.637 177.26C134.96 177.254 134.311 176.991 133.822 176.524C133.332 176.057 133.037 175.422 132.998 174.746C132.977 174.422 133.023 174.097 133.133 173.791C133.244 173.485 133.416 173.205 133.64 172.969C133.863 172.733 134.133 172.546 134.433 172.419C134.732 172.292 135.055 172.229 135.38 172.233C136.056 172.241 136.705 172.504 137.196 172.97C137.687 173.436 137.983 174.071 138.026 174.746Z" fill="#263238"/>
<path d="M145.743 174.746C145.764 175.071 145.718 175.396 145.608 175.702C145.498 176.008 145.325 176.287 145.102 176.523C144.878 176.759 144.608 176.947 144.309 177.073C144.009 177.2 143.687 177.264 143.362 177.26C142.685 177.252 142.036 176.989 141.545 176.522C141.055 176.056 140.758 175.422 140.716 174.746C140.696 174.421 140.743 174.096 140.854 173.79C140.965 173.484 141.138 173.205 141.362 172.969C141.586 172.733 141.857 172.546 142.157 172.419C142.456 172.292 142.779 172.229 143.105 172.233C143.781 172.239 144.43 172.502 144.92 172.969C145.41 173.435 145.704 174.071 145.743 174.746Z" fill="#263238"/>
<path d="M153.468 174.746C153.489 175.071 153.443 175.396 153.333 175.702C153.223 176.008 153.05 176.287 152.826 176.523C152.603 176.76 152.333 176.947 152.034 177.074C151.734 177.2 151.412 177.264 151.087 177.26C150.41 177.252 149.761 176.989 149.27 176.522C148.78 176.056 148.483 175.422 148.441 174.746C148.42 174.422 148.467 174.097 148.578 173.792C148.689 173.487 148.861 173.207 149.085 172.972C149.308 172.736 149.578 172.548 149.876 172.421C150.175 172.294 150.497 172.23 150.822 172.233C151.499 172.241 152.148 172.504 152.638 172.97C153.129 173.436 153.425 174.071 153.468 174.746Z" fill="#263238"/>
<path d="M161.193 174.746C161.213 175.071 161.166 175.397 161.055 175.702C160.944 176.008 160.771 176.288 160.546 176.524C160.322 176.76 160.052 176.947 159.752 177.073C159.452 177.2 159.13 177.264 158.804 177.26C158.128 177.252 157.48 176.988 156.991 176.522C156.501 176.056 156.206 175.421 156.165 174.746C156.144 174.422 156.19 174.097 156.301 173.791C156.411 173.485 156.583 173.205 156.807 172.969C157.031 172.733 157.301 172.546 157.6 172.419C157.899 172.292 158.222 172.229 158.547 172.233C159.224 172.241 159.872 172.504 160.363 172.97C160.854 173.436 161.15 174.071 161.193 174.746Z" fill="#263238"/>
<path d="M244.755 89.3906C244.939 89.6699 245.034 89.8169 245.152 90.0154L245.483 90.5593C245.696 90.9268 245.887 91.2943 246.071 91.6544C246.438 92.3894 246.806 93.1244 247.1 93.8594C247.716 95.3192 248.246 96.8138 248.687 98.3356C249.577 101.342 250.163 104.429 250.437 107.552L250.488 108.133C250.494 108.251 250.494 108.368 250.488 108.486V108.875C250.5 109.387 250.471 109.898 250.4 110.404C250.259 111.343 250.012 112.263 249.665 113.146C249.019 114.723 248.164 116.207 247.122 117.556C245.178 120.045 242.871 122.228 240.279 124.031L238.25 121.657C240.096 119.572 241.731 117.31 243.131 114.902C243.76 113.81 244.254 112.645 244.601 111.433C244.741 110.92 244.822 110.392 244.843 109.86C244.866 109.633 244.866 109.404 244.843 109.177V109.022C244.851 108.954 244.851 108.885 244.843 108.817L244.755 108.302C244.282 105.563 243.614 102.861 242.756 100.217C242.329 98.9015 241.808 97.63 241.286 96.3878C241.029 95.7631 240.735 95.153 240.441 94.565L239.985 93.6977L239.757 93.2935L239.566 92.9701L244.755 89.3906Z" fill="#803E3C"/>
<path d="M237.92 124.046L240.58 129.669L242.69 124.913C242.69 124.913 240.815 120.797 238.28 121.179L237.92 124.046Z" fill="#7F3E3B"/>
<path d="M242.484 129.948L244.601 126.479L242.69 124.913L240.58 129.669L242.484 129.948Z" fill="#7F3E3B"/>
<path d="M230.518 259.617C231.068 259.603 231.616 259.529 232.15 259.396C232.177 259.388 232.201 259.373 232.221 259.352C232.24 259.331 232.254 259.306 232.26 259.279C232.265 259.25 232.261 259.221 232.249 259.195C232.237 259.169 232.218 259.147 232.194 259.132C231.981 258.992 230.114 257.787 229.394 258.11C229.314 258.147 229.245 258.205 229.195 258.277C229.144 258.349 229.114 258.434 229.107 258.522C229.085 258.655 229.095 258.791 229.137 258.919C229.18 259.047 229.252 259.163 229.349 259.257C229.683 259.514 230.098 259.642 230.518 259.617ZM231.731 259.183C230.665 259.404 229.857 259.367 229.526 259.08C229.458 259.013 229.409 258.93 229.382 258.839C229.355 258.748 229.351 258.651 229.371 258.558C229.371 258.433 229.445 258.397 229.496 258.375C229.893 258.198 230.974 258.72 231.731 259.183Z" fill="#1F8E1F"/>
<path d="M232.113 259.396H232.187C232.209 259.382 232.227 259.362 232.24 259.339C232.253 259.316 232.26 259.29 232.26 259.264C232.26 259.19 232.26 257.419 231.584 256.824C231.501 256.749 231.403 256.693 231.296 256.66C231.19 256.627 231.077 256.618 230.966 256.633C230.851 256.634 230.738 256.674 230.649 256.748C230.559 256.821 230.498 256.923 230.474 257.037C230.334 257.735 231.452 259.058 232.04 259.396H232.113ZM231.062 256.904C231.121 256.903 231.181 256.913 231.236 256.934C231.292 256.956 231.342 256.988 231.385 257.029C231.773 257.601 231.974 258.279 231.959 258.97C231.371 258.499 230.672 257.5 230.761 257.081C230.761 257.015 230.812 256.927 230.996 256.904H231.062Z" fill="#1F8E1F"/>
<path d="M223.58 256.618C223.597 256.596 223.608 256.571 223.612 256.543C223.616 256.516 223.613 256.488 223.602 256.463C223.591 256.437 223.574 256.415 223.552 256.398C223.53 256.382 223.504 256.371 223.477 256.368C223.175 256.368 220.537 256.243 219.934 256.89V256.934C219.884 256.998 219.852 257.073 219.84 257.153C219.829 257.233 219.838 257.315 219.868 257.39C219.907 257.516 219.977 257.631 220.07 257.724C220.164 257.818 220.278 257.887 220.404 257.926C221.257 258.191 222.764 257.228 223.587 256.633L223.58 256.618ZM220.155 257.081C220.485 256.728 221.941 256.633 223.028 256.647C221.889 257.426 220.941 257.794 220.463 257.647C220.38 257.622 220.304 257.576 220.243 257.515C220.181 257.453 220.136 257.377 220.111 257.294C220.096 257.266 220.088 257.234 220.088 257.202C220.088 257.17 220.096 257.139 220.111 257.11L220.155 257.081Z" fill="#1F8E1F"/>
<path d="M223.58 256.618C223.591 256.595 223.596 256.57 223.596 256.544C223.596 256.519 223.591 256.494 223.58 256.471C223.543 256.412 222.72 255.001 221.75 254.707C221.61 254.666 221.464 254.654 221.32 254.672C221.176 254.689 221.037 254.736 220.912 254.81C220.559 255.016 220.537 255.258 220.581 255.412C220.772 256.096 222.646 256.699 223.455 256.691C223.48 256.691 223.505 256.684 223.527 256.671C223.549 256.658 223.567 256.64 223.58 256.618ZM220.941 255.148C220.982 255.107 221.03 255.072 221.081 255.045C221.171 254.987 221.274 254.95 221.38 254.936C221.487 254.922 221.596 254.932 221.698 254.964C222.338 255.133 222.933 255.956 223.205 256.361C222.33 256.265 221 255.728 220.89 255.317C220.88 255.286 220.88 255.252 220.889 255.221C220.898 255.19 220.916 255.162 220.941 255.14V255.148Z" fill="#1F8E1F"/>
<path d="M231.672 67.8625C230.937 71.5375 229.349 79.4829 231.9 81.9231C231.9 81.9231 230.9 85.5981 224.116 85.5981C216.649 85.5981 220.551 81.9231 220.551 81.9231C224.623 80.9529 224.52 77.9247 223.808 75.0876L231.672 67.8625Z" fill="#7F3E3B"/>
<path d="M219.236 59.2484C219.277 59.2551 219.319 59.2551 219.361 59.2484C219.396 59.2312 219.427 59.2072 219.452 59.1779C219.478 59.1486 219.498 59.1145 219.51 59.0775C219.522 59.0406 219.527 59.0016 219.524 58.9628C219.521 58.924 219.511 58.8862 219.493 58.8515C219.295 58.4322 219 58.0665 218.632 57.7851C218.263 57.5037 217.833 57.3149 217.376 57.2344C217.3 57.228 217.224 57.2511 217.164 57.2989C217.103 57.3467 217.064 57.4157 217.053 57.4917C217.045 57.5686 217.067 57.6457 217.115 57.7062C217.163 57.7668 217.233 57.8059 217.31 57.8151C217.671 57.8843 218.009 58.0384 218.298 58.2646C218.587 58.4909 218.818 58.7828 218.971 59.116C219 59.1595 219.039 59.1947 219.086 59.2179C219.132 59.2411 219.184 59.2517 219.236 59.2484Z" fill="#263238"/>
<path d="M217.009 62.475C216.43 63.5479 215.708 64.537 214.863 65.415C215.091 65.6244 215.363 65.7816 215.659 65.8755C215.955 65.9694 216.267 65.9979 216.575 65.9589L217.009 62.475Z" fill="#630F0F"/>
<path d="M217.56 61.6443C217.501 62.1368 217.185 62.5043 216.869 62.4675C216.553 62.4308 216.333 61.9971 216.391 61.5047C216.45 61.0122 216.766 60.6447 217.126 60.6815C217.487 60.7182 217.612 61.1519 217.56 61.6443Z" fill="#263238"/>
<path d="M217.222 60.7256L216.09 60.2699C216.09 60.2699 216.568 61.2401 217.222 60.7256Z" fill="#263238"/>
<path d="M230.07 255.221L224.072 256.618L220.427 242.829L226.424 241.433L230.07 255.221Z" fill="#7F3E3B"/>
<path d="M239.272 259.249H233.12L233.598 244.998H239.757L239.272 259.249Z" fill="#7F3E3B"/>
<path d="M232.628 258.536H239.544C239.664 258.535 239.78 258.578 239.871 258.656C239.961 258.735 240.02 258.844 240.036 258.962L240.823 264.431C240.838 264.569 240.824 264.709 240.782 264.842C240.74 264.974 240.669 265.096 240.576 265.2C240.483 265.303 240.369 265.386 240.242 265.442C240.115 265.498 239.977 265.527 239.838 265.526C237.427 265.489 236.266 265.342 233.223 265.342C231.349 265.342 228.614 265.541 226.035 265.541C223.455 265.541 223.308 262.983 224.388 262.755C229.21 261.711 229.974 260.285 231.599 258.918C231.886 258.673 232.25 258.538 232.628 258.536Z" fill="#263238"/>
<path d="M223.543 255.699L229.827 252.811C229.934 252.76 230.056 252.749 230.169 252.782C230.283 252.814 230.381 252.887 230.445 252.987L233.451 257.632C233.521 257.752 233.565 257.885 233.581 258.022C233.597 258.16 233.583 258.3 233.542 258.432C233.5 258.564 233.431 258.686 233.34 258.79C233.248 258.894 233.136 258.978 233.01 259.036C230.805 260.006 229.688 260.366 226.924 261.638C225.226 262.417 221.779 264.21 219.442 265.313C217.104 266.415 215.899 264.13 216.781 263.468C220.728 260.528 221.86 258.419 222.764 256.5C222.917 256.147 223.194 255.862 223.543 255.699Z" fill="#263238"/>
<path opacity="0.2" d="M220.427 242.829L222.382 250.223L228.306 248.54L226.431 241.433L220.427 242.829Z" fill="black"/>
<path opacity="0.2" d="M239.757 244.998H233.598L233.355 252.348H239.514L239.757 244.998Z" fill="black"/>
<path d="M242.55 83.3196C245.108 83.8855 247.842 93.0804 247.842 93.0804L240.61 100.776C240.61 100.776 234.605 92.1322 235.832 88.957C237.074 85.6422 239.5 82.6581 242.55 83.3196Z" fill="#263238"/>
<path opacity="0.4" d="M238.463 89.1775C237.17 87.9942 236.295 88.347 235.7 89.2878C235.112 92.022 238.596 97.7476 240 99.9159C240.646 97.3287 241.389 91.875 238.463 89.1775Z" fill="black"/>
<path d="M210.144 83.5033C210.144 83.5033 207.204 84.5323 213.084 120.658H238.074C237.655 110.485 237.64 104.208 242.484 83.3196C238.982 82.5971 235.433 82.1303 231.863 81.9231C228.085 81.6508 224.293 81.6508 220.515 81.9231C215.671 82.3714 210.144 83.5033 210.144 83.5033Z" fill="#263238"/>
<path opacity="0.4" d="M209.916 97.3654C210.078 99.122 210.291 101.099 210.57 103.334C212.621 101.489 214.297 96.2408 213.679 93.1832C212.214 94.3723 210.944 95.7834 209.916 97.3654Z" fill="black"/>
<path d="M212.591 91.8749C211.243 95.2689 209.724 98.5928 208.042 101.834C206.378 105.192 204.41 108.391 202.162 111.389L201.691 111.97L201.456 112.256C201.375 112.352 201.309 112.44 201.184 112.573C200.742 113.055 200.249 113.489 199.714 113.866C198.769 114.52 197.734 115.035 196.642 115.395C194.737 116.003 192.76 116.354 190.762 116.439C187.021 116.587 183.276 116.254 179.619 115.446L180.024 112.359C181.714 112.359 183.485 112.359 185.169 112.22C186.859 112.137 188.543 111.95 190.211 111.661C191.76 111.419 193.274 110.995 194.724 110.397C195.309 110.147 195.856 109.815 196.348 109.412C196.536 109.255 196.706 109.077 196.855 108.883C196.855 108.883 196.943 108.765 197.002 108.684L197.171 108.442L197.517 107.957C199.361 105.108 201.004 102.134 202.434 99.0559C203.904 95.9321 205.374 92.6908 206.719 89.5009L212.591 91.8749Z" fill="#803E3C"/>
<path d="M210.144 83.5033C207.079 84.2383 203.316 92.6467 203.316 92.6467L209.666 101.981C209.666 101.981 218.126 91.331 217.119 88.0823C216.09 84.694 213.885 82.5919 210.144 83.5033Z" fill="#263238"/>
<path d="M181.788 112.83L176.488 110.382L175.959 115.652C175.959 115.652 180.369 116.953 182.574 115.652L181.788 112.83Z" fill="#7F3E3B"/>
<path d="M173.32 109.853L172.813 113.866L175.959 115.652L176.488 110.382L173.32 109.853Z" fill="#7F3E3B"/>
<path d="M234.333 62.0045C233.208 68.0094 232.863 70.5819 229.423 73.3088C224.278 77.4101 217.112 74.72 216.421 68.5019C215.789 62.9012 217.729 54.0224 223.955 52.3319C225.326 51.9535 226.771 51.9328 228.153 52.2717C229.535 52.6106 230.806 53.2977 231.847 54.2676C232.888 55.2375 233.663 56.4579 234.098 57.8123C234.533 59.1667 234.614 60.6099 234.333 62.0045Z" fill="#7F3E3B"/>
<path d="M221.139 63.2688C220.794 66.3338 220.662 74.2938 227.394 74.5437C235.634 74.8451 238.103 67.8038 237.368 64.9887C241.661 61.4975 242.278 55.4925 237.456 50.8988C232.635 46.305 222.021 48.8702 219.081 53.3463C215.355 58.8956 221.139 63.2688 221.139 63.2688Z" fill="#263238"/>
<path d="M229.394 52.6848C228.997 49.4508 229.305 47.2238 232.334 47.2238C235.362 47.2238 239.492 48.3189 241.007 51.4133C242.521 54.5076 242.646 59.3513 238.419 58.8588C234.193 58.3664 229.871 56.5509 229.394 52.6848Z" fill="#1F8E1F"/>
<path d="M234.083 51.9057C233.348 48.0543 236.795 37.2057 245.167 36.4707C249.047 36.1399 250.841 40.3147 248.842 41.0056C252.517 40.9615 254.869 45.8199 251.444 46.5475C254.148 48.2821 253.479 51.8395 249.621 53.5888C246.747 54.9118 235.075 57.2418 234.083 51.9057Z" fill="#263238"/>
<path d="M243.028 56.0438C240.33 56.0438 237.515 55.6468 235.766 54.4782C235.277 54.1834 234.865 53.7762 234.565 53.2905C234.264 52.8048 234.084 52.2545 234.039 51.6852C234.037 51.6369 234.053 51.5895 234.084 51.5527C234.116 51.5158 234.16 51.4923 234.208 51.4868C234.232 51.4837 234.257 51.4857 234.28 51.4927C234.304 51.4997 234.326 51.5116 234.344 51.5275C234.363 51.5434 234.378 51.563 234.389 51.5851C234.399 51.6072 234.405 51.6313 234.406 51.6558C234.45 52.1695 234.615 52.6656 234.887 53.1036C235.159 53.5417 235.531 53.9094 235.972 54.1769C239.301 56.3819 246.997 55.6469 249.393 54.9119C251.466 54.2357 252.869 52.92 253.149 51.4059C253.236 50.8503 253.167 50.2814 252.95 49.7624C252.734 49.2434 252.378 48.7947 251.921 48.4659C251.904 48.4494 251.89 48.4295 251.88 48.4074C251.871 48.3852 251.866 48.3614 251.866 48.3373C251.866 48.3132 251.871 48.2893 251.88 48.2672C251.89 48.2451 251.904 48.2251 251.921 48.2086C251.956 48.175 252.002 48.1561 252.05 48.1561C252.098 48.1561 252.144 48.175 252.179 48.2086C252.692 48.583 253.09 49.0926 253.331 49.6806C253.571 50.2686 253.643 50.9117 253.538 51.5382C253.237 53.192 251.745 54.6032 249.54 55.3235C247.412 55.8598 245.221 56.1021 243.028 56.0438Z" fill="#263238"/>
<path d="M219.265 62.4749C218.581 63.435 218.299 64.6245 218.479 65.7898C218.721 67.3333 220.221 67.4362 221.309 66.4513C222.396 65.4664 223.344 63.6877 222.543 62.4088C222.365 62.1325 222.12 61.9064 221.829 61.752C221.539 61.5976 221.214 61.52 220.886 61.5266C220.557 61.5333 220.236 61.6239 219.952 61.7899C219.668 61.9559 219.432 62.1917 219.265 62.4749Z" fill="#7F3E3B"/>
<path d="M219.684 120.658C219.684 120.658 223.256 162.913 226.968 186.727C229.959 205.962 232.326 250.922 232.326 250.922H240.72C240.72 250.922 243.704 207.307 242.19 188.285C238.346 140.142 246.923 136.218 238.096 120.665L219.684 120.658Z" fill="#1F8E1F"/>
<path opacity="0.4" d="M230.253 136.629C226.927 140.12 224.242 144.171 222.323 148.595C223.3 158.091 224.462 168.631 225.696 177.863C230.763 164.745 232.334 150.536 230.253 136.629Z" fill="black"/>
<path d="M213.812 120.393C213.812 120.393 206.057 166.544 204.837 187.344C207.88 206.579 220.331 247.239 220.331 247.239L227.968 244.468C227.968 244.468 223.741 200.133 219.148 187.998C229.489 153.181 237.089 144.376 234.877 120.658C229.577 120.658 213.812 120.393 213.812 120.393Z" fill="#1F8E1F"/>
<path d="M219.309 249.268L229.629 246.468L229.041 242.352L217.994 245.343L219.309 249.268Z" fill="#263238"/>
<path d="M231.172 251.091H241.866L242.425 247.342L231.113 246.96L231.172 251.091Z" fill="#263238"/>
<path d="M238.463 119.188L239.588 121.429C239.676 121.606 239.47 121.782 239.184 121.782H212.959C212.738 121.782 212.547 121.672 212.533 121.525L212.305 119.32C212.305 119.165 212.489 119.033 212.731 119.033H238.052C238.128 119.023 238.205 119.031 238.277 119.058C238.349 119.085 238.413 119.13 238.463 119.188Z" fill="#1F8E1F"/>
<path opacity="0.5" d="M238.463 119.188L239.588 121.429C239.676 121.606 239.47 121.782 239.184 121.782H212.959C212.738 121.782 212.547 121.672 212.533 121.525L212.305 119.32C212.305 119.165 212.489 119.033 212.731 119.033H238.052C238.128 119.023 238.205 119.031 238.277 119.058C238.349 119.085 238.413 119.13 238.463 119.188Z" fill="black"/>
<path d="M235.06 122.01H235.737C235.876 122.01 235.979 121.936 235.972 121.856L235.648 118.916C235.648 118.827 235.523 118.761 235.391 118.761H234.708C234.575 118.761 234.472 118.827 234.48 118.916L234.796 121.856C234.811 121.951 234.928 122.01 235.06 122.01Z" fill="#1F8E1F"/>
<path d="M225.961 100.607C225.88 100.606 225.801 100.579 225.737 100.53C225.672 100.481 225.624 100.413 225.601 100.335C223.205 91.4707 218.251 84.1648 215.847 83.0623C215.661 82.9476 215.436 82.9107 215.223 82.9594C215.178 82.9828 215.13 82.9969 215.08 83.0007C215.03 83.0046 214.979 82.9981 214.932 82.9818C214.884 82.9655 214.841 82.9397 214.804 82.9058C214.767 82.872 214.737 82.831 214.716 82.7853C214.696 82.7395 214.685 82.6901 214.684 82.6399C214.683 82.5897 214.693 82.5399 214.712 82.4936C214.731 82.4472 214.76 82.4053 214.796 82.3704C214.832 82.3355 214.874 82.3083 214.921 82.2906C215.122 82.2168 215.337 82.1878 215.55 82.2056C215.763 82.2233 215.97 82.2875 216.156 82.3935C218.699 83.5989 223.727 90.8019 226.24 99.8644C228.041 99.8644 230.819 99.6219 231.496 99.5631C232.334 98.5635 238.493 90.8607 236.192 82.4302C236.179 82.3839 236.175 82.3354 236.181 82.2875C236.187 82.2397 236.202 82.1934 236.226 82.1516C236.25 82.1098 236.282 82.0733 236.321 82.0441C236.359 82.0149 236.403 81.9938 236.45 81.9819C236.543 81.9571 236.643 81.9702 236.727 82.0184C236.811 82.0665 236.872 82.1458 236.898 82.2391C239.463 91.6177 232.025 100.078 231.944 100.158C231.915 100.194 231.88 100.224 231.839 100.245C231.799 100.267 231.754 100.28 231.709 100.283C231.672 100.283 228.004 100.607 225.961 100.607Z" fill="#1F8E1F"/>
<path d="M238.14 105.796C234.134 98.2915 232.495 97.7623 231.782 95.3515C232.322 94.0034 233.093 92.7598 234.061 91.6765C233.576 91.5368 232.532 91.331 231.856 91.2061C231.929 90.8753 232.01 90.5519 232.084 90.2359C231.348 90.1536 230.604 90.1883 229.879 90.3388V89.6038C228.945 89.4007 227.986 89.3387 227.034 89.42C227.117 89.7679 227.198 90.1207 227.277 90.4784C226.542 90.6181 225.425 90.8459 224.888 91.0003C225.931 92.1811 226.696 93.5798 227.13 95.0942C224.969 98.806 216.575 122.664 230.231 124.494C243.888 126.324 242.138 113.308 238.14 105.796Z" fill="#1F8E1F"/>
<path opacity="0.4" d="M238.14 105.796C234.134 98.2915 232.495 97.7623 231.782 95.3515C232.322 94.0034 233.093 92.7598 234.061 91.6765C233.576 91.5368 232.532 91.331 231.856 91.2061C231.929 90.8753 232.01 90.5519 232.084 90.2359C231.348 90.1536 230.604 90.1883 229.879 90.3388V89.6038C228.945 89.4007 227.986 89.3387 227.034 89.42C227.117 89.7679 227.198 90.1207 227.277 90.4784C226.542 90.6181 225.425 90.8459 224.888 91.0003C225.931 92.1811 226.696 93.5798 227.13 95.0942C224.969 98.806 216.575 122.664 230.231 124.494C243.888 126.324 242.138 113.308 238.14 105.796Z" fill="white"/>
<path d="M226.571 94.3813C226.486 94.7598 226.449 95.1475 226.461 95.5352C226.461 95.8072 227.196 95.9909 228.012 96.0718C228.828 96.1526 232.253 96.2849 232.142 95.9027C232.032 95.5205 232.311 94.9987 232.326 94.6753C232.341 94.3519 230.966 94.3372 229.813 94.3813C228.659 94.4254 226.799 93.9697 226.571 94.3813Z" fill="#1F8E1F"/>
<path d="M218.626 122.01H219.302C219.434 122.01 219.537 121.936 219.53 121.856L219.214 118.916C219.214 118.827 219.089 118.761 218.949 118.761H218.295C218.163 118.761 218.06 118.827 218.067 118.916L218.383 121.856C218.368 121.951 218.486 122.01 218.626 122.01Z" fill="#1F8E1F"/>
</svg>
