<svg width="28" height="28" viewBox="0 0 28 28" fill="none" xmlns="http://www.w3.org/2000/svg">
<path d="M18.6667 3.5C18.9761 3.5 19.2728 3.62292 19.4916 3.84171C19.7104 4.0605 19.8333 4.35725 19.8333 4.66667V5.83333H22.1667C22.7553 5.83315 23.3223 6.05547 23.754 6.45575C24.1856 6.85602 24.45 7.40465 24.4942 7.99167L24.5 8.16667V22.1667C24.5002 22.7553 24.2779 23.3223 23.8776 23.754C23.4773 24.1856 22.9287 24.45 22.3417 24.4942L22.1667 24.5H5.83333C5.24466 24.5002 4.67767 24.2779 4.24603 23.8776C3.81438 23.4773 3.54998 22.9287 3.50583 22.3417L3.5 22.1667V8.16667C3.49981 7.57799 3.72214 7.01101 4.12241 6.57936C4.52269 6.14772 5.07132 5.88332 5.65833 5.83917L5.83333 5.83333H8.16667V4.66667C8.16667 4.35725 8.28958 4.0605 8.50838 3.84171C8.72717 3.62292 9.02391 3.5 9.33333 3.5C9.64275 3.5 9.9395 3.62292 10.1583 3.84171C10.3771 4.0605 10.5 4.35725 10.5 4.66667V5.83333H17.5V4.66667C17.5 4.35725 17.6229 4.0605 17.8417 3.84171C18.0605 3.62292 18.3572 3.5 18.6667 3.5ZM17.2947 10.9422L12.3457 15.8912L10.6948 14.2415C10.4748 14.029 10.1801 13.9114 9.8742 13.914C9.5683 13.9167 9.27569 14.0394 9.05938 14.2557C8.84307 14.472 8.72037 14.7646 8.71771 15.0705C8.71505 15.3764 8.83265 15.6711 9.04517 15.8912L11.5115 18.3587C11.6209 18.4682 11.7509 18.5551 11.8939 18.6144C12.0369 18.6737 12.1903 18.7042 12.3451 18.7042C12.4999 18.7042 12.6532 18.6737 12.7963 18.6144C12.9393 18.5551 13.0692 18.4682 13.1787 18.3587L18.9443 12.5918C19.0558 12.4842 19.1446 12.3555 19.2058 12.2131C19.2669 12.0708 19.2991 11.9177 19.3005 11.7628C19.3018 11.6079 19.2723 11.4543 19.2136 11.3109C19.155 11.1675 19.0683 11.0372 18.9588 10.9277C18.8493 10.8182 18.719 10.7315 18.5756 10.6729C18.4322 10.6142 18.2786 10.5847 18.1237 10.586C17.9688 10.5874 17.8157 10.6196 17.6734 10.6807C17.531 10.7419 17.4023 10.8307 17.2947 10.9422Z" fill="white"/>
</svg>
