<svg width="28" height="28" viewBox="0 0 28 28" fill="none" xmlns="http://www.w3.org/2000/svg">
<g clip-path="url(#clip0_771_597)">
<path fill-rule="evenodd" clip-rule="evenodd" d="M18.5383 3.68783C18.757 3.46947 19.0535 3.34683 19.3625 3.34683C19.6716 3.34683 19.9681 3.46947 20.1868 3.68783L23.4791 6.98017L23.4873 6.98717L23.4943 6.99533L24.311 7.812C24.5236 8.03188 24.6415 8.32651 24.639 8.63241C24.6366 8.93831 24.5141 9.23101 24.2979 9.44748C24.0818 9.66394 23.7892 9.78685 23.4833 9.78972C23.1774 9.79259 22.8827 9.6752 22.6625 9.46283L21.0116 11.1125L23.0743 13.1752C23.2868 13.3952 23.4044 13.6899 23.4018 13.9958C23.3991 14.3017 23.2764 14.5943 23.0601 14.8106C22.8438 15.0269 22.5512 15.1496 22.2453 15.1523C21.9394 15.1549 21.6447 15.0374 21.4246 14.8248L20.5998 14L14 20.5998C13.675 20.9249 13.2891 21.1828 12.8644 21.3587C12.4397 21.5346 11.9846 21.6252 11.5249 21.6252C11.0652 21.6252 10.61 21.5346 10.1854 21.3587C9.76068 21.1828 9.37481 20.9249 9.0498 20.5998L5.4098 24.241C5.19104 24.4599 4.89428 24.583 4.5848 24.5831C4.27531 24.5832 3.97846 24.4603 3.75955 24.2416C3.54064 24.0228 3.41759 23.7261 3.41748 23.4166C3.41737 23.1071 3.54021 22.8102 3.75897 22.5913L7.40013 18.949C6.74398 18.2927 6.37538 17.4026 6.37538 16.4745C6.37538 15.5464 6.74398 14.6563 7.40013 14L14 7.40017L13.1751 6.57533C12.9626 6.3553 12.845 6.06059 12.8477 5.7547C12.8503 5.4488 12.973 5.15619 13.1893 4.93988C13.4057 4.72357 13.6983 4.60087 14.0042 4.59821C14.3101 4.59556 14.6048 4.71315 14.8248 4.92567L16.8875 6.98717L18.5371 5.3375C18.3184 5.11872 18.1955 4.82203 18.1955 4.51267C18.1955 4.20331 18.3184 3.90662 18.5371 3.68783M21.0105 7.81317L19.362 9.46167L18.5371 8.63683L20.1868 6.98717L21.0105 7.81317ZM10.6995 15.6497L9.87463 14.8248L11.5243 13.1752L12.3491 14C12.5617 14.22 12.6792 14.5147 12.6766 14.8206C12.6739 15.1265 12.5512 15.4191 12.3349 15.6355C12.1186 15.8518 11.826 15.9745 11.5201 15.9771C11.2142 15.9798 10.9195 15.8622 10.6995 15.6497ZM13.1728 13.1752L12.3491 12.3503L14 10.7007L14.8248 11.5255C14.9362 11.6331 15.0251 11.7619 15.0863 11.9042C15.1474 12.0465 15.1796 12.1996 15.1809 12.3545C15.1823 12.5094 15.1528 12.6631 15.0941 12.8064C15.0354 12.9498 14.9488 13.0801 14.8393 13.1896C14.7297 13.2992 14.5995 13.3858 14.4561 13.4445C14.3127 13.5031 14.1591 13.5326 14.0042 13.5313C13.8493 13.5299 13.6962 13.4978 13.5538 13.4366C13.4115 13.3755 13.2828 13.2866 13.1751 13.1752" fill="white"/>
</g>
<defs>
<clipPath id="clip0_771_597">
<rect width="28" height="28" fill="white"/>
</clipPath>
</defs>
</svg>
